<svg width="96" height="15" viewBox="0 0 96 15" fill="none" xmlns="http://www.w3.org/2000/svg"><path d="M4.75 4.18c0-.11-.023-.17-.07-.18a.85.85 0 0 0-.157-.04H1.875a.858.858 0 0 0-.453.235c-.11.11-.195.24-.258.39-.062.152-.11.316-.14.493-.032.172-.066.339-.102.5a2.71 2.71 0 0 0-.031.172c-.01.063-.021.099-.032.11-.01.015-.028.023-.054.023H.547c-.031 0-.047-.01-.047-.031v-.258l.29-2.672a.413.413 0 0 1 .07-.164c.036-.052.093-.078.171-.078.037 0 .07.01.102.03a.48.48 0 0 1 .101.08c.032.025.06.051.086.077a.293.293 0 0 0 .094.055c.063.026.12.044.172.055.057.005.12.007.187.007h8.188c.068 0 .127-.002.18-.007a.876.876 0 0 0 .18-.055.219.219 0 0 0 .085-.055l.094-.078a.616.616 0 0 1 .094-.078.218.218 0 0 1 .11-.031c.077 0 .134.026.171.078.037.052.06.107.07.164l.29 2.672v.258c0 .02-.016.03-.047.03h-.258c-.026 0-.045-.007-.055-.023-.01-.01-.02-.046-.031-.109a2.78 2.78 0 0 0-.031-.172c-.037-.161-.07-.328-.102-.5a2.35 2.35 0 0 0-.14-.492 1.187 1.187 0 0 0-.258-.39.858.858 0 0 0-.454-.235H7.203c-.062.01-.117.023-.164.039-.042.01-.062.07-.062.18v8.297c0 .156.039.296.117.421.078.12.182.227.312.32.136.095.292.17.469.227.182.058.375.097.578.117.057.006.13.008.219.008h.226c.026 0 .042.008.047.024.01.015.016.028.016.039v.305c0 .01-.005.023-.016.039-.005.015-.02.023-.047.023h-6.07c-.026 0-.044-.008-.055-.023a.13.13 0 0 1-.007-.04v-.304c0-.01.002-.024.007-.04.01-.015.03-.023.055-.023h.219c.094 0 .17-.002.226-.008.204-.02.394-.06.57-.117.183-.057.34-.133.47-.226.135-.094.242-.2.32-.32a.78.78 0 0 0 .117-.422V4.18Zm7.313 4.117a.56.56 0 0 0-.211-.383.85.85 0 0 0-.391-.21.456.456 0 0 0-.125-.016 6.858 6.858 0 0 1-.117-.016.39.39 0 0 1-.094-.04c-.02-.02-.031-.054-.031-.1 0-.042.005-.079.015-.11.016-.031.053-.055.11-.07l2.383-.688a.617.617 0 0 1 .195-.031c.052 0 .078.044.078.133v5.273c0 .177.04.339.117.484.083.141.19.26.32.36.13.099.28.174.446.226.167.053.338.079.515.079.125 0 .256-.021.391-.063a2.56 2.56 0 0 0 .39-.156c.126-.068.243-.143.352-.227.11-.088.198-.18.266-.273v-4.18a.56.56 0 0 0-.211-.383.85.85 0 0 0-.39-.21.456.456 0 0 0-.126-.016 6.772 6.772 0 0 1-.117-.016.39.39 0 0 1-.094-.039c-.02-.02-.03-.055-.03-.102 0-.041.004-.078.015-.109.015-.031.052-.055.11-.07l2.382-.68a.619.619 0 0 1 .195-.031c.052 0 .078.023.078.07v5.39c.026.23.091.394.196.493.104.099.273.148.508.148l.453-.03c.02 0 .034.036.039.108.005.068.008.118.008.149 0 .01-.008.044-.024.101a.166.166 0 0 1-.094.126l-2.375.976a.508.508 0 0 1-.078.024.47.47 0 0 1-.07.023c-.037 0-.06-.024-.07-.07a1.007 1.007 0 0 1-.008-.125v-.75c-.016-.021-.042-.032-.078-.032h-.032c-.01 0-.015.006-.015.016l-1.25.61a6.836 6.836 0 0 0-.32.124l-.297.11a1.74 1.74 0 0 1-.665.117 4.21 4.21 0 0 1-.726-.07 3.314 3.314 0 0 1-.734-.204 1.832 1.832 0 0 1-.563-.374.745.745 0 0 1-.226-.547v-4.72Zm8.406 5.469c0-.026.008-.068.023-.125.016-.063.034-.1.055-.11.068-.031.164-.054.289-.07.125-.016.25-.05.375-.102a.915.915 0 0 0 .328-.257c.094-.12.14-.295.14-.524V8.055c0-.058-.03-.086-.093-.086h-.852a.33.33 0 0 1-.18-.055.2.2 0 0 1-.085-.172c0-.057.028-.107.086-.148a1.77 1.77 0 0 1 .226-.125c.089-.042.185-.081.29-.117a2.66 2.66 0 0 0 .296-.133.942.942 0 0 0 .219-.172.309.309 0 0 0 .094-.227v-.258c0-.729.093-1.432.28-2.109a5.604 5.604 0 0 1 .845-1.797 4.34 4.34 0 0 1 1.414-1.25c.567-.312 1.229-.468 1.984-.468.073 0 .203.02.39.062a4.5 4.5 0 0 1 .579.172c.198.073.372.159.523.258.151.099.227.205.227.32a.24.24 0 0 1-.024.11l-.039.117c-.01.026-.039.085-.086.18a11.73 11.73 0 0 0-.132.312 8.97 8.97 0 0 1-.141.312 14.7 14.7 0 0 0-.078.188.336.336 0 0 1-.063.078c-.026.031-.054.047-.086.047a.128.128 0 0 1-.039-.008 4.696 4.696 0 0 0-.984-.742c-.172-.11-.352-.2-.54-.274a1.562 1.562 0 0 0-.57-.11c-.41 0-.729.06-.953.18a1.17 1.17 0 0 0-.484.47 1.65 1.65 0 0 0-.187.648c-.016.234-.024.471-.024.71V6.75c0 .031.005.05.016.055a.203.203 0 0 0 .062.008h1.524c.146 0 .24.015.281.046.047.026.08.079.102.157.03.12.054.252.07.398.015.146.023.276.023.39 0 .068-.013.113-.039.133-.026.021-.08.032-.164.032h-1.773a.48.48 0 0 0-.063.008c-.026.005-.039.028-.039.07v4.375c0 .229.057.416.172.562.115.141.263.253.445.336.188.084.396.14.625.172.235.026.466.04.696.04.047.005.08.038.101.1.026.063.04.108.04.134a.33.33 0 0 1-.009.054.209.209 0 0 1-.015.078.137.137 0 0 1-.04.07.106.106 0 0 1-.077.032h-4.883c-.031-.01-.052-.044-.063-.102a.8.8 0 0 1-.015-.132Zm8.96.078c-.171.12-.374.213-.609.281a2.523 2.523 0 0 1-.703.102c-.635 0-1.12-.144-1.453-.43-.328-.287-.492-.675-.492-1.164 0-.281.062-.524.187-.727.13-.203.32-.383.57-.539.25-.156.558-.297.923-.422.37-.13.796-.258 1.28-.383.261-.067.47-.14.626-.218.161-.078.31-.154.445-.227.089-.047.138-.088.149-.125a.26.26 0 0 0 .023-.101V8.53c0-.172-.026-.33-.078-.476a1.027 1.027 0 0 0-.578-.649c-.14-.062-.3-.093-.477-.093-.15 0-.291.026-.422.078a.934.934 0 0 0-.336.226c-.093.1-.169.216-.226.352-.052.135-.078.289-.078.46V8.5l.015.102a2.728 2.728 0 0 0 .024.132c-.006.01-.05.032-.133.063a7.127 7.127 0 0 1-.297.11 20.07 20.07 0 0 1-.383.116 15.879 15.879 0 0 0-.742.21 1.861 1.861 0 0 1-.195.048c-.058 0-.094-.028-.11-.086a1.095 1.095 0 0 1-.015-.18c0-.301.09-.596.273-.882.182-.287.425-.54.727-.758a3.944 3.944 0 0 1 1.054-.54 3.764 3.764 0 0 1 1.227-.202c.375 0 .71.05 1.008.148.297.094.55.227.758.399.208.166.367.362.476.586.11.218.164.453.164.703v3.726c0 .136.05.258.149.367a.54.54 0 0 0 .398.157.63.63 0 0 0 .25-.047c.078-.037.146-.076.203-.117l.157-.117c.041-.037.078-.055.109-.055.042 0 .065.018.07.055.005.03.008.06.008.085 0 .089-.013.18-.04.274a.322.322 0 0 1-.116.195c-.255.193-.482.367-.68.524a11.84 11.84 0 0 1-.539.39c-.162.11-.307.193-.438.25a.915.915 0 0 1-.367.086.485.485 0 0 1-.28-.086 1.009 1.009 0 0 1-.212-.21 1.654 1.654 0 0 1-.148-.266 7.473 7.473 0 0 1-.11-.274 19.45 19.45 0 0 1-.062-.203c-.016-.052-.029-.075-.04-.07l-.913.71Zm-1.437-1.399c0 .14.026.255.078.344.058.089.13.156.22.203.088.047.187.08.296.102.115.015.232.023.352.023.109 0 .244-.026.406-.078.161-.057.317-.13.468-.219.157-.093.29-.198.399-.312.11-.12.164-.24.164-.36V10.86c0-.057-.02-.086-.063-.086a.07.07 0 0 0-.03.008l-1.813.844-.203.148a.609.609 0 0 0-.149.157.605.605 0 0 0-.094.21c-.02.079-.03.18-.03.305Zm8.766-6.023.062-.031a.18.18 0 0 1 .055-.016c.089 0 .133.063.133.188V7.78c.015.052.036.078.062.078h.063a3.529 3.529 0 0 1 1.961-.945c.135-.047.27-.08.406-.101.135-.027.284-.042.445-.047.162-.006.36-.008.594-.008.255 0 .477.054.664.164.188.11.344.255.469.437.13.177.234.383.312.618.084.229.146.466.188.71.042.24.07.48.086.72.015.234.023.447.023.64 0 .182-.005.351-.015.508a23.47 23.47 0 0 1-.024.515c-.005.183-.013.39-.023.625-.005.235-.008.518-.008.852 0 .156.029.286.086.39.057.105.13.19.219.258.093.068.195.12.304.157.11.03.216.057.32.078l.282.054c.088.01.156.026.203.047.02.01.04.044.055.102a.543.543 0 0 1 .023.125.94.94 0 0 1-.016.14c-.01.058-.03.092-.062.102h-4.36c-.03-.01-.051-.044-.062-.102a.94.94 0 0 1-.016-.14c0-.026.008-.068.024-.125.016-.057.034-.091.055-.102a.977.977 0 0 1 .265-.07c.115-.02.23-.063.344-.125a.954.954 0 0 0 .32-.281c.1-.13.164-.32.196-.57.01-.079.018-.152.023-.22a2.698 2.698 0 0 0 .031-.437c.005-.083.008-.18.008-.289 0-.234-.003-.484-.008-.75a45.89 45.89 0 0 1-.008-.89c0-.256-.012-.508-.039-.758a1.933 1.933 0 0 0-.171-.672 1.165 1.165 0 0 0-.399-.485c-.177-.125-.422-.187-.734-.187-.11 0-.209.008-.297.023-.083.01-.188.04-.313.086-.12.047-.278.117-.476.211-.198.094-.464.222-.797.383a1.612 1.612 0 0 0-.133.094.171.171 0 0 0-.07.125v3.828c0 .234.047.414.14.539.094.12.204.208.329.266.125.052.25.088.375.109.125.016.22.039.289.07.02.01.039.044.054.102a.544.544 0 0 1 .024.125.944.944 0 0 1-.016.14c-.01.058-.031.092-.062.102h-4.078c-.032-.01-.053-.044-.063-.102a.94.94 0 0 1-.016-.14c0-.026.008-.068.024-.125.015-.057.034-.091.054-.102a1.02 1.02 0 0 1 .29-.07c.125-.02.25-.057.375-.11a.883.883 0 0 0 .328-.265c.093-.125.14-.305.14-.54V8.579c0-.125-.034-.221-.101-.289a.628.628 0 0 0-.258-.164 2.109 2.109 0 0 0-.336-.086 5.518 5.518 0 0 1-.344-.086.275.275 0 0 1-.078-.039c-.016-.02-.023-.06-.023-.117a.15.15 0 0 1 .023-.078.247.247 0 0 1 .094-.078l2.586-1.22Zm12.219 2.14c0-.583.073-1.132.218-1.648.146-.52.352-1 .617-1.437.266-.438.586-.831.961-1.18.375-.35.79-.643 1.243-.883a6.399 6.399 0 0 1 1.468-.562 6.708 6.708 0 0 1 1.633-.196c.48 0 .94.045 1.383.133.448.083.909.182 1.383.297a3.987 3.987 0 0 1 .484.172l.211.07c.063.021.11.031.14.031.011 0 .045-.01.102-.03a.497.497 0 0 1 .133-.032h.36c.062 0 .093.044.093.133v2.547c0 .03-.013.052-.039.062a.421.421 0 0 1-.148.016h-.125c-.063-.006-.102-.021-.117-.047l-.063-.094a1.102 1.102 0 0 0-.094-.14 1.646 1.646 0 0 0-.093-.141 4.672 4.672 0 0 0-.695-1.078 3.081 3.081 0 0 0-1.704-1.016 4.755 4.755 0 0 0-1.086-.117c-.495 0-.935.057-1.32.172-.38.114-.714.276-1 .484a3.012 3.012 0 0 0-.727.75 4.469 4.469 0 0 0-.476.961 5.96 5.96 0 0 0-.266 1.11 9.31 9.31 0 0 0 .016 2.531c.062.432.164.846.304 1.242.141.39.32.755.54 1.094.223.333.492.625.804.875a3.65 3.65 0 0 0 1.094.578c.417.14.888.21 1.414.21.443 0 .854-.064 1.234-.195a4.283 4.283 0 0 0 1.055-.539c.318-.229.599-.49.844-.78.25-.298.463-.608.64-.93.01-.027.021-.04.032-.04a.203.203 0 0 1 .062-.008h.399c.015 0 .03.008.047.024.02.01.03.036.03.078a.553.553 0 0 1-.038.125.97.97 0 0 1-.07.164l-1.079 2.375a.117.117 0 0 1-.047.04.126.126 0 0 1-.054.015.791.791 0 0 1-.266-.031.36.36 0 0 0-.148-.032c-.157 0-.365.029-.625.086l-.836.172c-.297.063-.6.12-.907.172a4.405 4.405 0 0 1-.812.086 7.02 7.02 0 0 1-1.594-.18 6.67 6.67 0 0 1-1.453-.515 5.964 5.964 0 0 1-1.242-.836 5.537 5.537 0 0 1-.969-1.125 5.346 5.346 0 0 1-.633-1.375 5.807 5.807 0 0 1-.218-1.617Zm15.406 5.282c-.172.12-.375.213-.61.281a2.522 2.522 0 0 1-.703.102c-.635 0-1.12-.144-1.453-.43-.328-.287-.492-.675-.492-1.164 0-.281.063-.524.188-.727.13-.203.32-.383.57-.539.25-.156.557-.297.922-.422.37-.13.797-.258 1.28-.383.261-.067.47-.14.626-.218.161-.078.31-.154.445-.227.089-.047.138-.088.149-.125a.26.26 0 0 0 .023-.101V8.53c0-.172-.026-.33-.078-.476a1.027 1.027 0 0 0-.578-.649c-.14-.062-.3-.093-.477-.093-.15 0-.291.026-.422.078a.934.934 0 0 0-.336.226c-.093.1-.169.216-.226.352-.052.135-.078.289-.078.46V8.5l.015.102a2.712 2.712 0 0 0 .024.132c-.005.01-.05.032-.133.063a7.193 7.193 0 0 1-.297.11 20.27 20.27 0 0 1-.383.116 15.879 15.879 0 0 0-.742.21 1.861 1.861 0 0 1-.195.048c-.057 0-.094-.028-.11-.086a1.095 1.095 0 0 1-.015-.18c0-.301.091-.596.273-.882.183-.287.425-.54.727-.758a3.944 3.944 0 0 1 1.055-.54 3.763 3.763 0 0 1 1.226-.202c.375 0 .711.05 1.008.148.297.094.55.227.758.399.208.166.367.362.476.586.11.218.164.453.164.703v3.726c0 .136.05.258.149.367a.54.54 0 0 0 .398.157.63.63 0 0 0 .25-.047c.078-.037.146-.076.203-.117l.157-.117c.041-.037.078-.055.109-.055.042 0 .065.018.07.055.006.03.008.06.008.085 0 .089-.013.18-.039.274a.322.322 0 0 1-.117.195c-.255.193-.482.367-.68.524-.198.15-.377.28-.539.39-.161.11-.307.193-.437.25a.915.915 0 0 1-.368.086.485.485 0 0 1-.28-.086 1.014 1.014 0 0 1-.212-.21 1.662 1.662 0 0 1-.148-.266 7.473 7.473 0 0 1-.11-.274 22.233 22.233 0 0 1-.062-.203c-.016-.052-.029-.075-.04-.07l-.913.71Zm-1.438-1.399c0 .14.026.255.078.344.058.089.13.156.22.203.088.047.187.08.296.102.115.015.232.023.352.023.109 0 .244-.026.406-.078.161-.057.318-.13.469-.219a1.89 1.89 0 0 0 .398-.312c.11-.12.164-.24.164-.36V10.86c0-.057-.02-.086-.062-.086a.07.07 0 0 0-.032.008l-1.812.844-.203.148a.61.61 0 0 0-.149.157.603.603 0 0 0-.093.21c-.021.079-.032.18-.032.305Zm9.977 1.32a.791.791 0 0 1-.016.133c-.01.058-.031.092-.062.102h-4.078c-.032-.01-.053-.044-.063-.102a.8.8 0 0 1-.016-.132c0-.026.008-.068.024-.125.016-.058.034-.091.055-.102.067-.031.164-.055.289-.07.125-.021.25-.057.375-.11a.914.914 0 0 0 .328-.257c.094-.12.14-.295.14-.524v-9.11c0-.124-.033-.22-.101-.288a.628.628 0 0 0-.258-.164 2.113 2.113 0 0 0-.336-.086 5.521 5.521 0 0 1-.344-.086c-.067-.026-.101-.1-.101-.219 0-.026.008-.06.023-.102a.193.193 0 0 1 .094-.109l2.586-1.219c.02-.01.044-.02.07-.03a.23.23 0 0 1 .086-.017c.042 0 .068.016.078.047a.43.43 0 0 1 .016.14v11.243c0 .23.047.404.14.524.094.114.204.2.329.257.125.053.25.089.375.11.125.015.221.039.289.07.02.01.039.044.054.102a.539.539 0 0 1 .024.125Zm.828.235c-.031-.01-.052-.044-.063-.102a.94.94 0 0 1-.015-.14c0-.026.008-.068.023-.125.016-.057.034-.091.055-.102a1.02 1.02 0 0 1 .29-.07c.124-.02.25-.057.374-.11a.915.915 0 0 0 .328-.257c.094-.12.14-.294.14-.524V8.82c0-.125-.033-.221-.1-.289a.627.627 0 0 0-.259-.164 2.108 2.108 0 0 0-.335-.086 5.503 5.503 0 0 1-.344-.086.274.274 0 0 1-.078-.039c-.016-.02-.024-.06-.024-.117a.15.15 0 0 1 .024-.078.246.246 0 0 1 .093-.078l2.586-1.219.063-.031a.18.18 0 0 1 .055-.016c.088 0 .132.063.132.188v5.765c0 .23.047.404.14.524.095.114.204.2.33.258.124.052.25.088.374.109.125.016.221.039.29.07.02.01.038.044.054.102a.543.543 0 0 1 .023.125.94.94 0 0 1-.015.14c-.01.058-.032.092-.063.102H73.75Zm.797-10.21c0-.334.099-.6.297-.798.198-.198.463-.297.797-.297.333 0 .599.1.796.297.198.198.297.464.297.797s-.099.599-.296.797c-.198.193-.464.289-.797.289-.334 0-.6-.096-.797-.29-.198-.197-.297-.463-.297-.796Zm5.289 10.163a.21.21 0 0 0-.125.04 1.576 1.576 0 0 0-.11.085.798.798 0 0 1-.093.094.166.166 0 0 1-.11.039h-.28c-.011 0-.027-.076-.048-.227-.02-.15-.044-.33-.07-.539-.02-.213-.04-.432-.055-.656a8.68 8.68 0 0 1-.023-.57c0-.084.029-.136.086-.156a.504.504 0 0 1 .195-.04c.037 0 .076.014.117.04.047.025.089.06.125.101a.77.77 0 0 1 .18.227c.088.192.177.367.266.523.088.156.19.29.304.399.115.109.25.195.407.257.156.058.343.086.562.086a.84.84 0 0 0 .406-.086.636.636 0 0 0 .243-.226.808.808 0 0 0 .109-.32c.02-.12.031-.245.031-.376 0-.26-.078-.479-.234-.656a2.837 2.837 0 0 0-.586-.508 13.01 13.01 0 0 0-.758-.476 4.68 4.68 0 0 1-.758-.563 2.89 2.89 0 0 1-.578-.758c-.156-.296-.234-.661-.234-1.093 0-.25.078-.492.234-.727.156-.24.36-.45.61-.633.25-.182.528-.328.835-.437a2.8 2.8 0 0 1 .93-.164c.162 0 .323.015.484.047a4.314 4.314 0 0 1 .805.203c.1.036.162.062.188.078a.255.255 0 0 1 .086.125.687.687 0 0 1 .046.258c.01.12.016.281.016.484.005.198.008.458.008.781 0 .089-.034.154-.102.196a.37.37 0 0 1-.187.054.5.5 0 0 1-.172-.03.164.164 0 0 1-.102-.102 6.467 6.467 0 0 0-.21-.485A2.209 2.209 0 0 0 82 7.797a1.139 1.139 0 0 0-.352-.32.876.876 0 0 0-.468-.125c-.105 0-.209.013-.313.039a.63.63 0 0 0-.281.156.782.782 0 0 0-.203.305c-.047.13-.07.296-.07.5 0 .177.08.34.242.492.166.15.372.304.617.46l.797.493c.291.177.56.38.804.61.245.228.448.494.61.796.166.297.25.649.25 1.055 0 .302-.078.575-.235.82a2.16 2.16 0 0 1-.601.61 2.89 2.89 0 0 1-.82.382c-.297.094-.589.14-.875.14-.146 0-.292-.012-.438-.038a3.466 3.466 0 0 1-.398-.094 4.775 4.775 0 0 1-.297-.086.915.915 0 0 0-.133-.039Zm4.93.047c-.032-.01-.053-.044-.063-.102a.94.94 0 0 1-.016-.14c0-.026.008-.068.024-.125.016-.057.034-.091.055-.102a1.02 1.02 0 0 1 .289-.07c.125-.02.25-.057.375-.11a.914.914 0 0 0 .328-.257c.094-.12.14-.294.14-.524V8.82c0-.125-.033-.221-.101-.289a.628.628 0 0 0-.258-.164 2.112 2.112 0 0 0-.336-.086 5.521 5.521 0 0 1-.344-.086.274.274 0 0 1-.078-.039c-.015-.02-.023-.06-.023-.117a.15.15 0 0 1 .023-.078.247.247 0 0 1 .094-.078l2.586-1.219.062-.031a.18.18 0 0 1 .055-.016c.089 0 .133.063.133.188v5.765c0 .23.047.404.14.524.094.114.204.2.329.258.125.052.25.088.375.109.125.016.221.039.289.07.02.01.039.044.054.102a.539.539 0 0 1 .024.125.93.93 0 0 1-.016.14c-.01.058-.031.092-.062.102h-4.078Zm.796-10.21c0-.334.1-.6.297-.798.198-.198.464-.297.797-.297.334 0 .6.1.797.297.198.198.297.464.297.797s-.099.599-.297.797c-.198.193-.463.289-.797.289-.333 0-.599-.096-.797-.29-.197-.197-.296-.463-.296-.796Zm6.93 2.874.063-.031a.18.18 0 0 1 .054-.016c.089 0 .133.063.133.188V8.195c.005.021.021.032.047.032a.085.085 0 0 0 .063-.024.51.51 0 0 1 .046-.055l.313-.414a5.16 5.16 0 0 1 .375-.437c.135-.136.273-.248.414-.336a.746.746 0 0 1 .414-.14c.094 0 .216.025.367.077.151.053.297.115.438.188.146.068.268.14.367.219.104.073.156.133.156.18a.986.986 0 0 1-.07.265 2.798 2.798 0 0 1-.18.383 2.14 2.14 0 0 1-.226.351c-.079.1-.151.149-.22.149h-.015a4.03 4.03 0 0 1-.289-.11 4.887 4.887 0 0 0-.289-.132 1.637 1.637 0 0 0-.305-.11 1.005 1.005 0 0 0-.742.055 1.136 1.136 0 0 0-.351.25 1.23 1.23 0 0 0-.227.336.862.862 0 0 0-.086.36v3.296c0 .151.031.279.094.383a.951.951 0 0 0 .25.25 1.5 1.5 0 0 0 .336.148c.125.032.245.058.36.079.114.02.218.039.312.054a.75.75 0 0 1 .21.047c.053.02.079.094.079.219 0 .15-.026.232-.078.242h-4.508c-.052-.01-.078-.091-.078-.242 0-.125.026-.198.078-.219.068-.031.164-.055.289-.07.125-.021.25-.057.375-.11a.915.915 0 0 0 .328-.257c.094-.12.14-.295.14-.524V8.82c0-.125-.033-.221-.1-.289a.627.627 0 0 0-.259-.164 2.11 2.11 0 0 0-.336-.086 5.525 5.525 0 0 1-.343-.086.273.273 0 0 1-.079-.039c-.015-.02-.023-.06-.023-.117a.15.15 0 0 1 .023-.078.247.247 0 0 1 .094-.078l2.586-1.219Z" fill="#262626"/></svg>